<?xml version="1.0" standalone="no"?>
<!DOCTYPE svg PUBLIC "-//W3C//DTD SVG 20010904//EN"
 "http://www.w3.org/TR/2001/REC-SVG-20010904/DTD/svg10.dtd">
<svg version="1.0" xmlns="http://www.w3.org/2000/svg"
 width="584.000000pt" height="427.000000pt" viewBox="0 0 584.000000 427.000000"
 preserveAspectRatio="xMidYMid meet">

<g transform="translate(0.000000,427.000000) scale(0.100000,-0.100000)"
fill="#000000" stroke="none">
<path d="M1130 4205 c-512 -68 -925 -395 -1042 -827 -32 -118 -31 -352 1 -483
25 -101 69 -222 111 -307 76 -154 234 -345 325 -393 33 -17 39 -18 62 -5 47
27 49 41 18 131 -25 70 -30 104 -33 206 -5 140 5 195 50 290 60 128 182 223
343 268 78 21 298 31 391 16 314 -49 587 -216 695 -426 66 -129 74 -168 73
-370 -1 -194 -3 -208 -91 -580 l-37 -160 -1 -230 c0 -205 3 -241 23 -334 72
-320 215 -537 468 -707 206 -138 440 -208 789 -235 178 -14 1930 -20 1977 -6
88 24 74 101 -46 254 -78 100 -170 159 -286 184 -27 6 -50 14 -50 17 1 4 29
40 64 81 217 253 233 532 41 739 -110 119 -321 236 -630 347 -27 10 -97 31
-155 47 l-105 28 65 -4 c68 -4 97 -12 430 -118 218 -69 310 -106 406 -162 143
-84 136 -82 206 -61 213 60 373 130 513 223 83 56 100 87 69 129 -54 72 -391
112 -698 83 -108 -11 -111 -10 -220 21 -212 60 -312 125 -429 278 -56 73 -117
175 -117 194 0 5 15 -1 33 -12 235 -156 550 -210 897 -157 143 23 163 35 174
112 14 108 -41 353 -116 512 -155 327 -439 532 -792 571 -53 6 -102 11 -111
11 -11 0 -15 11 -15 48 -1 125 -39 271 -93 356 -39 61 -119 126 -156 126 -44
0 -68 -35 -74 -110 -10 -105 -52 -220 -122 -330 -60 -96 -126 -172 -315 -365
-108 -110 -217 -222 -241 -250 -57 -63 -211 -255 -264 -330 -22 -31 -49 -68
-61 -83 -112 -145 -437 -645 -524 -807 -119 -221 -118 -214 26 220 56 171 116
360 133 420 146 535 106 947 -128 1325 -220 353 -560 570 -976 619 -116 14
-334 12 -455 -4z m3660 -1221 c54 -49 55 -91 5 -141 -34 -34 -38 -35 -91 -31
-66 6 -94 31 -94 88 0 57 9 76 48 98 54 31 85 28 132 -14z"/>
</g>
</svg>
