<?xml version="1.0" encoding="UTF-8" standalone="no"?>

<svg
   xmlns:dc="http://purl.org/dc/elements/1.1/"
   xmlns:cc="http://creativecommons.org/ns#"
   xmlns:rdf="http://www.w3.org/1999/02/22-rdf-syntax-ns#"
   xmlns:svg="http://www.w3.org/2000/svg"
   xmlns="http://www.w3.org/2000/svg"
   xmlns:sodipodi="http://sodipodi.sourceforge.net/DTD/sodipodi-0.dtd"
   xmlns:inkscape="http://www.inkscape.org/namespaces/inkscape"
   version="1.1"
   id="Layer_1"
   x="0px"
   y="0px"
   width="64"
   height="64"
   viewBox="0 0 64 64"
   enable-background="new 0 0 250.25 59"
   xml:space="preserve"
   inkscape:version="0.48.3.1 r9886"
   sodipodi:docname="Martlet.svg">
   
   <metadata id="metadata61">
     <rdf:RDF>
       <cc:Work rdf:about="">
         <dc:format>image/svg+xml</dc:format>
         <dc:type rdf:resource="http://purl.org/dc/dcmitype/StillImage" />
         <dc:title />
       </cc:Work>
     </rdf:RDF>
   </metadata>
   
   <defs id="defs59" />
     <sodipodi:namedview
     pagecolor="#ffffff"
     bordercolor="#666666"
     borderopacity="1"
     objecttolerance="10"
     gridtolerance="10"
     guidetolerance="10"
     inkscape:pageopacity="0"
     inkscape:pageshadow="2"
     inkscape:window-width="1855"
     inkscape:window-height="1055"
     id="namedview57"
     showgrid="false"
     inkscape:zoom="11.468388"
     inkscape:cx="36.386187"
     inkscape:cy="40.427965"
     inkscape:window-x="65"
     inkscape:window-y="24"
     inkscape:window-maximized="1"
     inkscape:current-layer="Layer_1" />
     
     <path
     style="fill:#ed1b2f;fill-opacity:1;fill-rule:evenodd"
     inkscape:connector-curvature="0"
     clip-rule="evenodd"
     d="m 13.223321,10.08395 c 0.542736,0 0.902115,0.396051 0.902115,0.938786 0,0.465727 -0.359379,0.861776 -0.902115,0.861776 -0.502397,0 -0.898446,-0.396049 -0.898446,-0.861776 0,-0.542735 0.396049,-0.938786 0.898446,-0.938786 M 6.9561926,22.838236 C 7.1996494,21.536814 8.2213528,19.273785 8.7567551,18.40834 8.2213528,17.469555 7.3522428,16.604112 6.5931463,16.604112 6.9561926,15.668993 8.4670505,14.550517 8.217686,13.758418 7.8216358,13.002988 7.238561,13.109335 5.658027,12.247558 6.1934281,11.23543 7.3522428,10.590016 8.1076724,10.480001 9.0464586,10.37365 8.8890695,9.0098448 10.377626,8.2833894 11.866183,7.556934 13.236261,7.2103365 15.383262,7.4179462 c 2.147001,0.2076097 9.083487,2.0169233 7.279258,10.0516088 3.960503,8.034688 17.97995,-2.666005 22.842568,-2.666005 -0.902114,1.800562 -2.163608,3.60479 -3.102394,5.368682 1.334836,0.865443 3.102394,0 4.506906,0 -1.404512,4.470234 -4.107189,6.270797 -6.26713,8.034687 2.159941,7.13624 10.447661,4.360219 17.829598,3.604791 -0.858108,2.376302 -3.890828,2.666006 -5.291672,4.433563 2.559657,2.666005 5.291672,6.267129 7.099568,9.835249 -3.311421,-2.163607 -10.194627,-4.503238 -12.464583,-5.368681 -4.470234,-1.800563 -13.546386,-1.800563 -17.979951,0 0.865444,1.800561 2.666007,2.666004 4.070518,3.568119 -2.306625,4.466568 -6.809865,1.800562 -9.439199,0.898447 -2.306625,1.767557 -6.523829,1.947247 -7.675309,0.902115 0,0 0,-1.118476 1.404513,-2.053593 0.861775,-1.261495 -2.702676,-1.514527 -3.674466,-3.315088 0,-1.694216 1.760223,0 2.776019,-1.800563 C 14.990879,34.477716 5.658027,33.542597 6.9561926,22.838236 z"
     id="martlet"
     inkscape:export-xdpi="5931.4448"
     inkscape:export-ydpi="5931.4448"
     sodipodi:nodetypes="csssccccccczzccccccccccccccccc" />
</svg>
